<svg height="85.333328" viewBox="0 0 85.333328 85.333328" width="85.333328" xmlns="http://www.w3.org/2000/svg"><g transform="matrix(.13333333 0 0 -.13333333 0 85.333331)"><path d="m640 320c0-176.73-143.27-320-320-320s-320 143.27-320 320 143.27 320 320 320 320-143.27 320-320" fill="#77caa9"/><path d="m480 100h-200v20h200c22.09 0 40 17.906 40 40v-20c0-22.094-17.91-40-40-40m-240 0h-80c-22.094 0-40 17.906-40 40v320-300c0-22.094 17.906-40 40-40h80z" fill="#62a48d"/><path d="m520 160c0-22.094-17.91-40-40-40h-320c-22.094 0-40 17.906-40 40v320c0 22.094 17.906 40 40 40h320c22.09 0 40-17.906 40-40z" fill="#c84755"/><path d="m240 100h40v20h-40z" fill="#538777"/><path d="m520 300h-214.023c-4.875 4.012-9.262 7.129-12.571 9.316 20.914.047 40.11 1.852 55.407 10.684h171.187zm-369.684 0h-30.316v40-20h51.578c-4.613-2.516-8.887-5.641-12.762-9.516-3.253-3.254-6.089-6.773-8.5-10.484" fill="#a43f4a"/><path d="m240 120h40v400h-40z" fill="#f3cc70"/><path d="m120 320h400v40h-400z" fill="#f3cc70"/><path d="m204.246 200.813c-16.441 0-32.883 6.273-45.43 18.816-21.832 21.832-24.668 55.473-8.5 80.371h89.684v-88.336c-10.781-7.234-23.266-10.851-35.754-10.851m22.352 99.187c-25.457 0-38.95-3.109-46.567-10.727-13.351-13.351-13.351-35.078 0-48.429 6.465-6.469 15.067-10.031 24.215-10.031 9.149 0 17.746 3.562 24.215 10.031 10.777 10.773 11.141 32.883 10.566 58.996-4.199.094-8.347.16-12.429.16" fill="#a43f4a"/><path d="m334.164 204.164c-8.285 0-15 6.715-15 15 0 31.012-26.078 53.574-39.164 62.941v17.895h25.977c18.226-15.012 43.187-42.555 43.187-80.836 0-8.285-6.715-15-15-15" fill="#a43f4a"/><path d="m305.977 300h-25.977v20h68.813c-15.297-8.832-34.493-10.637-55.407-10.684 3.309-2.187 7.696-5.304 12.571-9.316m-65.977 0h-89.684c2.411 3.711 5.247 7.23 8.5 10.484 3.875 3.875 8.149 7 12.762 9.516h68.422z" fill="#883840"/><path d="m240 211.664v108.336h40v-37.895c-4.293 3.075-7.187 4.731-7.305 4.793-1.359.762-2.496 1.75-3.515 2.829.156-27.848-2.301-52.895-19.504-70.098-3.02-3.02-6.262-5.672-9.676-7.965" fill="#c7a85f"/><path d="m377.551 360h-31.512c5.766 12.633 3.453 28.078-6.926 38.461-6.468 6.469-15.07 10.031-24.215 10.031-9.148 0-17.75-3.562-24.218-10.031-7.805-7.805-10.149-21.551-10.629-38.461h-.051v68.203c10.582 6.86 22.738 10.289 34.898 10.289 16.442 0 32.883-6.273 45.426-18.816 16.196-16.196 21.938-38.879 17.227-59.676" fill="#a43f4a"/><path d="m280 360h-29.937c.609 23.637 4.378 44.648 19.406 59.676 3.265 3.265 6.801 6.109 10.531 8.527z" fill="#c7a85f"/><path d="m225.152 360h-41c-8.371 11.73-14.859 25.938-16.711 42.781-.902 8.239 5.039 15.649 13.274 16.555.539.059 1.078.086 1.613.086 7.543 0 14.094-5.668 14.938-13.359 2.226-20.258 15.246-35.657 27.886-46.063" fill="#a43f4a"/><path d="m348.813 320h-177.235c12.496 6.813 27.488 9.145 43.828 9.777-10.215 7.129-21.906 17.129-31.254 30.223h41c11.114-9.148 21.93-14.441 24.879-15.801-.086 5.367-.101 10.649.032 15.801h29.937.051c-.184-6.437-.094-13.336.062-20.535 4.2-.094 8.348-.16 12.434-.16 25.457 0 38.945 3.105 46.566 10.726 2.969 2.969 5.278 6.356 6.926 9.969h31.512c-2.586-11.426-8.328-22.285-17.227-31.184-3.523-3.523-7.375-6.425-11.511-8.816" fill="#c7a85f"/><g fill="#f3cc70"><path d="m314.898 458.492c-16.445 0-32.886-6.273-45.429-18.816-25.09-25.09-18.817-66.844-18.817-109.676 14.274 0 28.434-.695 41.895-.695 26.922 0 51.051 2.785 67.777 19.511 25.09 25.09 25.09 65.77 0 90.86-12.543 12.543-28.984 18.816-45.426 18.816zm0-30c9.145 0 17.747-3.562 24.215-10.031 13.352-13.352 13.352-35.078 0-48.43-7.621-7.621-21.109-10.726-46.566-10.726-4.082 0-8.234.066-12.434.16-.574 26.113-.211 48.219 10.567 58.996 6.468 6.469 15.07 10.031 24.218 10.031"/><path d="m226.598 350c-26.922 0-51.055-2.785-67.782-19.516-25.089-25.089-25.089-65.765 0-90.855 12.547-12.543 28.989-18.816 45.43-18.816 16.442 0 32.883 6.273 45.43 18.816 25.09 25.09 18.816 66.844 18.816 109.676-14.277 0-28.437.695-41.894.695zm0-30c4.082 0 8.23-.066 12.429-.16.575-26.113.211-48.223-10.566-58.996-6.469-6.469-15.066-10.031-24.215-10.031-9.148 0-17.75 3.562-24.215 10.031-13.351 13.351-13.351 35.078 0 48.429 7.617 7.618 21.11 10.727 46.567 10.727"/><path d="m334.172 224.172c-8.281 0-15 6.719-15 15 0 41.18-46.008 67.469-46.477 67.723-7.207 4.05-9.804 13.171-5.781 20.402 4.024 7.215 13.113 9.832 20.352 5.828 2.531-1.406 61.906-34.961 61.906-93.953 0-8.281-6.723-15-15-15"/><path d="m245.02 335c-1.922 0-3.887.371-5.782 1.16-2.668 1.113-65.343 27.981-71.797 86.621-.91 8.235 5.039 15.649 13.274 16.555 8.211.891 15.64-5.039 16.551-13.273 4.531-41.258 53.066-62.02 53.554-62.223 7.637-3.195 11.239-11.985 8.047-19.629-2.402-5.754-7.976-9.211-13.847-9.211"/></g></g></svg>