<svg height="85.333328" viewBox="0 0 85.333328 85.333328" width="85.333328" xmlns="http://www.w3.org/2000/svg"><g transform="matrix(.13333333 0 0 -.13333333 0 85.333331)"><path d="m640 320c0-176.73-143.27-320-320-320s-320 143.27-320 320 143.27 320 320 320 320-143.27 320-320" fill="#c84755"/><path d="m240 240c0 5.5 6.438 4.938 11.199 7.688l60.141 34.722c4.762 2.75 12.558 2.75 17.32 0l60.141-34.722c4.762-2.75 11.199-2.188 11.199-7.688v-74.059c0-5.5-6.437-14.945-11.199-17.695l-60.141-34.723c-4.762-2.75-12.558-2.75-17.32 0l-60.141 34.723c-4.761 2.75-11.199 12.195-11.199 17.695z" fill="#e1e3cc"/><path d="m320 190c-93.738 0-170 76.262-170 170s76.262 170 170 170 170-76.262 170-170-76.262-170-170-170" fill="#f3cc70"/><path d="m320 540c-99.254 0-180-80.746-180-180s80.746-180 180-180 180 80.746 180 180-80.746 180-180 180m0-20c88.367 0 160-71.633 160-160s-71.633-160-160-160-160 71.633-160 160 71.633 160 160 160" fill="#c84755"/><path d="m320 91.4648c-3.141 0-6.277.6836-8.66 2.0586l-60.141 34.7226c-4.761 2.75-11.199 12.195-11.199 17.695v20c0-5.5 6.438-14.945 11.199-17.695l60.141-34.723c2.383-1.375 5.519-2.062 8.66-2.062s6.277.687 8.66 2.062l60.141 34.723c4.762 2.75 11.199 12.195 11.199 17.695v-20c0-5.5-6.437-14.945-11.199-17.695l-60.141-34.7226c-2.383-1.375-5.519-2.0586-8.66-2.0586" fill="#a43f4a"/><path d="m320 111.461c-3.141 0-6.277.687-8.66 2.062l-60.141 34.723c-4.761 2.75-11.199 12.195-11.199 17.695v13.051-13.051c0-5.5 6.438-14.945 11.199-17.695l60.141-34.723c2.383-1.375 5.519-2.058 8.66-2.058s6.277.683 8.66 2.058l60.141 34.723c4.762 2.75 11.199 12.195 11.199 17.695 0-5.5-6.437-14.945-11.199-17.695l-60.141-34.723c-2.383-1.375-5.519-2.062-8.66-2.062" fill="#b7b7a7"/><path d="m240 239.496v-73.555c0-5.5 6.438-14.945 11.199-17.695l60.141-34.723c4.762-2.75 12.558-2.75 17.32 0l60.141 34.723c4.762 2.75 11.199 12.195 11.199 17.695v73.555c-24.137-12.043-51.242-18.992-80-18.992s-55.863 6.949-80 18.992" fill="#e1e3cc"/><path d="m320 220.504c-28.758 0-55.863 6.949-80 18.992v-18.09c-45.113 26.094-76.301 73.582-79.691 128.594 5.164 83.703 74.687 150 159.691 150s154.527-66.297 159.691-150c-3.39-55.012-34.578-102.5-79.691-128.594v18.09c-24.137-12.043-51.242-18.992-80-18.992" fill="#c7a85f"/><path d="m400 201.406v20c45.113 26.094 76.301 73.582 79.691 128.594.207-3.309.309-6.641.309-10 0-59.227-32.172-110.93-80-138.594m-160 0c-47.828 27.664-80 79.367-80 138.594 0 3.359.102 6.691.309 10 3.39-55.012 34.578-102.5 79.691-128.594z" fill="#a43f4a"/><path d="m320 180c-29.141 0-56.469 7.793-80 21.406v20 18.09c24.137-12.043 51.242-18.992 80-18.992s55.863 6.949 80 18.992v-18.09-20c-23.531-13.613-50.859-21.406-80-21.406" fill="#b7b7a7"/><path d="m320 520c-88.363 0-160-71.637-160-160s71.637-160 160-160 160 71.637 160 160-71.637 160-160 160" fill="#f3cc70"/><g fill="#fff"><path d="m271.875 415c-16.051 0-25.98-14.105-25.98-27.18 0-6.465 2.308-15.886 13.289-24.054 7.519-5.59 21.363-12.121 45.816-13.672v9.906c.438 9.426-1.09 34.641-13.031 47.172-5.09 5.344-11.477 7.828-20.094 7.828zm48.125-190.504c-8.285 0-15 6.715-15 15v80.543c-26.664 1.422-48.062 8.012-63.715 19.652-16.375 12.172-25.39 29.27-25.39 48.129 0 31.532 25.113 57.18 55.98 57.18 16.73 0 31.227-5.961 41.914-17.242 22.871-24.129 21.43-64.086 21.191-68.559l.02-119.703c0-8.285-6.715-15-15-15"/><path d="m368.184 415c-8.649 0-15.047-2.504-20.141-7.883-11.965-12.621-13.434-38.308-13.004-46.316v-10.711c24.469 1.555 38.316 8.086 45.836 13.676 10.98 8.168 13.289 17.589 13.289 24.054 0 13.075-9.93 27.18-25.98 27.18zm-48.125-190.504c-8.286 0-15 6.715-15 15v120.504c-.219 3.672-1.661 43.629 21.211 67.758 10.687 11.281 25.183 17.242 41.914 17.242 30.871 0 55.98-25.648 55.98-57.18 0-18.859-9.019-35.957-25.391-48.129-15.66-11.644-37.058-18.238-63.73-19.652l.016-80.543c0-8.285-6.715-15-15-15"/></g></g></svg>