<svg height="85.333336" viewBox="0 0 85.333336 85.333336" width="85.333336" xmlns="http://www.w3.org/2000/svg"><g transform="matrix(.13333333 0 0 -.13333333 0 85.333333)"><path d="m640 320c0-176.73-143.27-320-320-320s-320 143.27-320 320 143.27 320 320 320 320-143.27 320-320" fill="#495672"/><path d="m480 150h-320c-22.094 0-40 17.91-40 40v200-30-150c0-22.09 17.906-40 40-40h320c22.09 0 40 17.91 40 40v-20c0-22.09-17.91-40-40-40" fill="#404a5f"/><path d="m380 520h-120c-22.094 0-40-17.91-40-40v-200c0-22.094 17.906-40 40-40h120c22.09 0 40 17.906 40 40v200c0 22.09-17.91 40-40 40m0-40v-200h-120v200z" fill="#e08e4c"/><path d="m120 360v-150c0-22.09 17.906-40 40-40h320c22.09 0 40 17.91 40 40v150z" fill="#e08e4c"/><path d="m520 390c0 22.07-17.875 39.965-39.934 40 22.059-.035 39.934-17.93 39.934-40m-400 0c0 22.094 17.906 40 40 40-22.094 0-40-17.91-40-40" fill="#404a5f"/><path d="m520 360h-100v70h60 .066c22.059-.035 39.934-17.93 39.934-40zm-300 0h-100v30c0 22.09 17.906 40 40 40h60zm160 24.648c-5.883 3.403-12.715 5.352-20 5.352h-80c-7.285 0-14.117-1.949-20-5.352v45.352h120z" fill="#394051"/><g fill="#b77744"><path d="m420 360h-21.262c-2.703 10.508-9.57 19.348-18.738 24.648v45.352h40zm-178.738 0h-21.262v70h40v-45.352c-9.168-5.3-16.035-14.14-18.738-24.648"/><path d="m520 340h-120v10c0 3.453-.437 6.805-1.262 10h21.262 100zm-280 0h-120v20h100 21.262c-.824-3.195-1.262-6.547-1.262-10z"/><path d="m360 280h-80c-22.09 0-40 17.91-40 40v20h160v-20c0-22.09-17.91-40-40-40"/></g><path d="m380 360h-120v24.648c5.883 3.403 12.715 5.352 20 5.352h80c7.285 0 14.117-1.949 20-5.352z" fill="#343945"/><path d="m398.738 360h-18.738v24.648c9.168-5.3 16.035-14.14 18.738-24.648m-138.738 0h-18.738c2.703 10.508 9.57 19.348 18.738 24.648z" fill="#97633d"/><path d="m400 340h-160v10c0 3.453.438 6.805 1.262 10h18.738 120 18.738c.825-3.195 1.262-6.547 1.262-10z" fill="#97633d"/><path d="m360 410h-80c-22.094 0-40-17.91-40-40v-30c0-22.09 17.906-40 40-40h80c22.09 0 40 17.91 40 40v30c0 22.09-17.91 40-40 40zm0-40v-30h-80v30z" fill="#f3cc70"/><path d="m520 410c0 22.094-17.906 40-40 40h-320c-22.094 0-40-17.906-40-40v-50h400z" fill="#e08e4c"/></g></svg>